<?xml version="1.0" standalone="yes"?>
<svg xmlns="http://www.w3.org/2000/svg" width="512" height="512">
<path style="fill:#010101; stroke:none;" d="M0 0L0 512L191 512L191 511C158.39 509.596 127.959 485.967 106 464C47.942 405.92 19.902 311.09 38.8843 231C43.8308 210.129 51.8499 189.522 64.4282 172C70.208 163.949 84.6216 154.792 87.7593 145.985C88.9993 142.505 85.8712 138.128 84.6042 135C81.1836 126.555 78.7442 117.931 77.0008 109C72.5576 86.2396 74.8497 61.6812 83.0185 40.0038C87.5851 27.8855 110.672 24.7917 122 22.9197C153.483 17.717 186.101 24.9309 213 42.054C222.941 48.3824 230.505 57.3113 240 64L240 0L0 0z"/>
<path style="fill:#ca4460; stroke:none;" d="M240 0L241 156C225.17 151.419 212.074 141.274 197 134.872C175.167 125.599 150.143 123.245 127 128.425C86.3064 137.534 57.5125 171.84 44.6674 210C26.0251 265.382 30.639 328.236 52.8611 382C77.0985 440.64 124.441 503.417 192 511.714C215.077 514.548 235.567 504.474 258 505.015C269.942 505.303 281.209 510.266 293 511.714C308.517 513.62 325.088 511.724 340 507.279C375.46 496.711 405.059 470.471 426.424 441C466.116 386.246 486.163 315.282 476.421 248C468.822 195.525 439.917 139.938 384 127.425C340.458 117.682 309.255 141.331 271 156L272 0L240 0z"/>
<path style="fill:#010101; stroke:none;" d="M272 0L272 69L273 69C290.713 42.2215 325.748 28.6555 357 33.9205C364.361 35.1606 378.227 37.2424 383.157 43.3935C386.85 48.0011 388.102 56.3343 389.195 62C393.777 85.7452 386.886 104.825 377 126C390.488 129.491 403.043 133.4 415 140.814C445.643 159.814 463.879 193.864 472.373 228C490.378 300.355 469.66 380.358 426.424 440C402.639 472.81 363.081 509.146 320 511L320 512L512 512L512 0L272 0z"/>
<path style="fill:#f0ecaf; stroke:none;" d="M89 146C98.5822 141.468 106.961 135.202 117 131.425C141.243 122.305 166.932 124.118 191 132.692C207.745 138.657 223.094 153.536 241 155L241 89C241 81.3624 243.27 69.4741 238.566 63C214.027 29.2211 162.008 17.166 123 22.7292C112.662 24.2035 91.8073 26.7012 84.8434 35.3935C79.8253 41.657 78.4987 53.3265 77.0008 61C71.1927 90.752 77.6018 118.586 89 146z"/>
<path style="fill:#73cb7b; stroke:none;" d="M124 22L125 23L124 22M175 25L176 26L175 25M182 27L183 28L182 27M185 28L186 29L185 28M91 31L92 32L91 31M271 156C294.976 149.193 313.933 132.339 339 127.611C346.292 126.236 354.572 124.673 362 125.093C366.683 125.358 373.393 127.738 377.471 124.397C392.641 111.967 392.488 78.0629 389.195 61C388.141 55.5388 386.887 45.8316 382.49 41.9946C376.497 36.7655 364.608 34.9968 357 33.7538C328.049 29.0237 286.487 40.7335 272.314 69C268.857 75.8937 271 87.4324 271 95L271 156M207 38L208 39L207 38M222 48L223 49L222 48M240 65L241 66L240 65M78 116L79 117L78 116M144 125L144 126L159 126L144 125z"/>
<path style="fill:#3d5b91; stroke:none;" d="M355 125L356 126L355 125z"/>
<path style="fill:#73cb7b; stroke:none;" d="M135 126L135 127L138 127L135 126M165 126L165 127L168 127L165 126M130.667 127.333L131.333 127.667L130.667 127.333M172.667 127.333L173.333 127.667L172.667 127.333M126 128L127 129L126 128M177 128L178 129L177 128M122 129L123 130L122 129M181 129L182 130L181 129M119 130L120 131L119 130M184 130L185 131L184 130M116 131L117 132L116 131M187 131L188 132L187 131M114 132L115 133L114 132M190 132L191 133L190 132M111 133L112 134L111 133M193 133L194 134L193 133M109 134L110 135L109 134M107 135L108 136L107 135M198 135L199 136L198 135z"/>
<path style="fill:#3d5b91; stroke:none;" d="M313 135L314 136L313 135z"/>
<path style="fill:#73cb7b; stroke:none;" d="M105 136L106 137L105 136M200 136L201 137L200 136M103 137L104 138L103 137M202 137L203 138L202 137M101 138L102 139L101 138M98 140L99 141L98 140M96 141L97 142L96 141M210 141L211 142L210 141M212 142L213 143L212 142M93 143L94 144L93 143M90 145L91 146L90 145M217 145L218 146L217 145M222 148L223 149L222 148M224 149L225 150L224 149M230 152L231 153L230 152M235.667 154.333L236.333 154.667L235.667 154.333z"/>
<path style="fill:#f0ecaf; stroke:none;" d="M143 155.428C107.874 160.46 84.4826 188.921 73.3441 221C54.9201 274.061 64.2918 334.866 87.3086 385C108.462 431.075 148.757 476.743 202 481.83C222.194 483.76 242.453 474.759 263 475.004C282.865 475.24 299.59 483.873 320 480.562C352.854 475.232 381.028 450.741 400.373 425C434.629 379.419 452.864 318.958 447.169 262C443.997 230.279 434.356 198.798 411 176.015C405.627 170.773 399.676 166.536 393 163.11C370.42 151.519 344.525 153.988 322 164.309C310.645 169.511 300.757 177.152 289 181.575C274.397 187.069 259.373 188.391 244 186.829C207.536 183.125 181.789 149.871 143 155.428z"/>
<path style="fill:#73cb7b; stroke:none;" d="M239.667 155.333L240.333 155.667L239.667 155.333z"/>
<path style="fill:#3d5b91; stroke:none;" d="M196 271L196 331L226 331L226 271L196 271M286 271L286 331L316 331L316 271L286 271z"/>
<path style="fill:#010101; stroke:none;" d="M220 511L220 512L292 512C279.999 506.611 262.09 503.679 249 505.286C239.183 506.492 229.892 510.574 220 511z"/>
</svg>
